<!DOCTYPE svg PUBLIC "-//W3C//DTD SVG 20010904//EN" "http://www.w3.org/TR/2001/REC-SVG-20010904/DTD/svg10.dtd">
<svg version="1.0" xmlns="http://www.w3.org/2000/svg" width="989px" height="1600px" viewBox="0 0 9890 16000" preserveAspectRatio="xMidYMid meet">
<g id="layer1" fill="#ffffff" stroke="none">
 <path d="M7980 15991 c0 -5 -7 -11 -15 -13 -15 -3 -257 -223 -402 -365 -41 -40 -76 -73 -79 -73 -5 0 -209 -198 -1213 -1180 -730 -714 -1174 -1154 -2935 -2915 -1606 -1605 -2476 -2480 -2476 -2489 0 -2 -73 -78 -162 -168 -89 -89 -202 -207 -252 -260 -50 -54 -163 -173 -251 -266 -204 -215 -195 -202 -195 -262 0 -56 1 -58 105 -170 459 -495 1088 -1133 3226 -3270 2150 -2149 2297 -2295 3584 -3549 126 -124 305 -298 397 -388 92 -90 169 -163 172 -163 3 0 47 -42 99 -92 150 -147 366 -343 382 -346 8 -2 15 -8 15 -13 0 -14 107 -11 133 3 45 26 213 165 295 246 30 28 57 52 60 52 20 0 919 903 1157 1162 101 110 231 267 253 305 18 33 15 119 -5 151 -9 15 -37 50 -62 78 -26 27 -77 86 -116 129 -359 405 -2051 2114 -5271 5322 l-544 543 524 522 c3123 3113 4842 4847 5261 5309 103 113 192 216 208 241 20 32 23 118 5 151 -11 19 -124 159 -179 222 -275 314 -1033 1071 -1364 1364 -57 50 -203 168 -223 179 -25 14 -132 17 -132 3z"/>
 </g>

</svg>