<!DOCTYPE svg PUBLIC "-//W3C//DTD SVG 20010904//EN" "http://www.w3.org/TR/2001/REC-SVG-20010904/DTD/svg10.dtd">
<svg version="1.0" xmlns="http://www.w3.org/2000/svg" width="680px" height="800px" viewBox="0 0 6800 8000" preserveAspectRatio="xMidYMid meet">
<g id="layer1" fill="#000000" stroke="none">
 <path d="M2870 7989 c-317 -18 -518 -41 -810 -95 -641 -118 -1274 -331 -1743 -586 -201 -110 -228 -137 -268 -275 -45 -156 -62 -649 -34 -998 28 -362 125 -608 319 -812 139 -147 287 -235 480 -289 445 -123 852 -310 1335 -615 49 -30 62 -34 126 -34 62 0 78 4 120 30 73 46 108 102 113 181 8 127 -35 183 -233 306 -356 222 -771 416 -1145 536 -85 27 -171 53 -190 57 -78 16 -184 77 -250 144 -140 141 -197 324 -220 696 -6 94 -8 224 -5 290 6 127 23 298 31 328 6 20 266 149 459 227 1173 474 2580 586 3890 309 460 -97 966 -269 1334 -453 101 -51 132 -71 135 -88 25 -124 37 -398 26 -603 -21 -376 -79 -564 -220 -705 -83 -83 -133 -107 -359 -175 -370 -111 -763 -286 -1137 -506 -268 -157 -324 -215 -324 -339 0 -53 5 -74 28 -112 33 -56 76 -93 132 -113 81 -29 148 -14 247 53 337 227 828 454 1246 576 252 73 379 147 527 303 175 184 278 431 309 738 14 142 14 758 0 895 -20 195 -49 281 -112 337 -99 87 -504 282 -844 406 -494 180 -1109 321 -1608 366 -325 30 -997 40 -1355 20z"/>
 <path d="M3258 4320 c-388 -29 -709 -167 -966 -414 -294 -284 -475 -654 -572 -1171 -88 -476 -73 -1129 36 -1535 158 -584 575 -1002 1146 -1149 203 -52 513 -66 788 -36 548 59 1008 383 1245 878 149 309 208 646 206 1182 -2 1080 -388 1843 -1076 2126 -233 96 -527 139 -807 119z m299 -481 c532 -59 865 -389 1023 -1012 84 -333 108 -688 75 -1089 -18 -211 -42 -341 -90 -485 -145 -433 -456 -690 -935 -770 -127 -21 -357 -20 -480 1 -503 88 -819 384 -945 885 -48 190 -59 319 -60 676 0 362 9 460 65 710 53 237 141 459 247 618 231 348 632 518 1100 466z"/>
 </g>

</svg>