<!DOCTYPE svg PUBLIC "-//W3C//DTD SVG 20010904//EN" "http://www.w3.org/TR/2001/REC-SVG-20010904/DTD/svg10.dtd">
<svg version="1.0" xmlns="http://www.w3.org/2000/svg" width="423px" height="800px" viewBox="0 0 4230 8000" preserveAspectRatio="xMidYMid meet">
<g id="layer1" fill="#000000" stroke="none">
 <path d="M3885 7980 c-27 -14 -660 -640 -1951 -1932 -1675 -1677 -1912 -1918 -1922 -1954 -15 -52 -15 -136 -1 -184 9 -31 363 -388 1938 -1963 1428 -1427 1935 -1928 1960 -1936 45 -15 134 -14 185 1 52 16 108 72 124 124 15 52 16 141 1 185 -9 25 -498 521 -1832 1857 l-1820 1824 1816 1816 c1976 1977 1847 1840 1847 1957 0 97 -42 173 -114 206 -57 26 -176 25 -231 -1z"/>
 </g>

</svg>