<!DOCTYPE svg PUBLIC "-//W3C//DTD SVG 20010904//EN" "http://www.w3.org/TR/2001/REC-SVG-20010904/DTD/svg10.dtd">
<svg version="1.0" xmlns="http://www.w3.org/2000/svg" width="510px" height="509px" viewBox="0 0 5100 5090" preserveAspectRatio="xMidYMid meet">
<g id="layer1" fill="#666666" stroke="none">
 <path d="M1296 3993 c-37 -11 -66 -31 -112 -77 -102 -102 -94 12 -94 -1361 0 -1373 -8 -1259 94 -1361 102 -102 -13 -94 1371 -94 1384 0 1269 -8 1371 94 102 102 94 -12 94 1361 0 1373 8 1259 -94 1361 -102 102 14 94 -1375 93 -1046 0 -1213 -2 -1255 -16z m2398 -315 c14 -20 16 -97 16 -640 l0 -618 -137 0 -138 0 -1 133 c-3 245 -76 425 -243 601 -83 86 -166 146 -273 195 -135 63 -192 75 -363 75 -171 0 -228 -12 -362 -74 -104 -49 -161 -88 -247 -169 -122 -118 -204 -255 -247 -416 -16 -61 -22 -112 -23 -212 l-1 -133 -137 0 -138 0 0 618 c0 543 2 620 16 640 l15 22 1124 0 1124 0 15 -22z m-999 -573 c104 -27 184 -72 261 -149 114 -114 168 -242 168 -401 0 -159 -54 -287 -168 -401 -111 -111 -242 -164 -401 -164 -260 0 -476 163 -551 416 -24 79 -24 219 0 298 59 199 211 349 406 400 73 19 211 20 285 1z m999 -1301 c13 -13 16 -44 16 -182 0 -229 16 -212 -210 -212 -226 0 -210 -15 -210 205 0 220 -16 205 210 205 149 0 181 -3 194 -16z"/>
 </g>
<g id="layer2" fill="#ffffff" stroke="none">
 <path d="M2220 5078 c-347 -29 -742 -174 -1076 -394 -543 -357 -931 -904 -1085 -1529 -79 -320 -79 -900 0 -1220 212 -860 869 -1563 1711 -1829 243 -77 457 -106 780 -106 323 0 537 29 780 106 842 266 1499 969 1711 1829 79 320 79 900 0 1220 -149 604 -511 1130 -1028 1491 -350 245 -767 401 -1158 433 -150 13 -481 12 -635 -1z m1590 -1104 c39 -12 66 -29 106 -68 90 -91 84 8 84 -1351 0 -1359 6 -1260 -84 -1351 -91 -90 10 -84 -1361 -84 -1371 0 -1270 -6 -1361 84 -90 91 -84 -8 -84 1351 0 1360 -6 1260 84 1351 90 89 -13 83 1357 83 1072 1 1211 -1 1259 -15z"/>
 <path d="M1406 3689 l-26 -31 2 -626 3 -627 154 0 155 0 2 140 c1 107 7 159 23 220 68 256 233 453 473 564 135 63 192 75 363 75 171 0 228 -12 363 -75 240 -111 405 -308 473 -564 16 -61 22 -113 23 -220 l2 -140 155 0 154 0 3 627 2 626 -26 31 -26 31 -1123 0 -1123 0 -26 -31z"/>
 <path d="M2410 3124 c-105 -27 -180 -72 -266 -158 -125 -124 -178 -247 -178 -411 0 -164 53 -287 178 -411 122 -121 246 -174 411 -174 165 0 289 53 411 174 125 124 178 247 178 411 0 164 -53 287 -178 411 -87 87 -162 131 -271 159 -74 19 -212 18 -285 -1z"/>
 <path d="M3296 1809 c-26 -30 -26 -33 -26 -194 0 -161 0 -164 26 -194 l26 -31 178 0 178 0 26 31 c26 30 26 32 26 200 0 231 13 219 -229 219 l-179 0 -26 -31z"/>
 </g>

</svg>