<!DOCTYPE svg PUBLIC "-//W3C//DTD SVG 20010904//EN" "http://www.w3.org/TR/2001/REC-SVG-20010904/DTD/svg10.dtd">
<svg version="1.0" xmlns="http://www.w3.org/2000/svg" width="423px" height="800px" viewBox="0 0 4230 8000" preserveAspectRatio="xMidYMid meet">
<g id="layer1" fill="#000000" stroke="none">
 <path d="M115 7981 c-51 -24 -81 -56 -100 -110 -18 -51 -20 -144 -4 -192 8 -25 483 -506 1833 -1856 l1821 -1823 -1821 -1822 c-1350 -1351 -1825 -1832 -1833 -1857 -15 -45 -14 -134 1 -185 16 -52 72 -108 124 -124 51 -15 148 -14 191 1 42 16 3853 3812 3879 3864 27 53 27 193 0 246 -26 52 -3829 3843 -3875 3863 -49 20 -167 18 -216 -5z"/>
 </g>

</svg>