<!DOCTYPE svg PUBLIC "-//W3C//DTD SVG 20010904//EN" "http://www.w3.org/TR/2001/REC-SVG-20010904/DTD/svg10.dtd">
<svg version="1.0" xmlns="http://www.w3.org/2000/svg" width="481px" height="485px" viewBox="0 0 4810 4850" preserveAspectRatio="xMidYMid meet">
<g id="layer1" fill="#000000" stroke="none">
 <path d="M0 2425 l0 -2425 1555 0 1555 0 0 2425 0 2425 -1555 0 -1555 0 0 -2425z m2780 1675 l0 -440 -1235 0 -1235 0 0 440 0 440 1235 0 1235 0 0 -440z m0 -1925 l0 -1165 -1235 0 -1235 0 0 1165 0 1165 1235 0 1235 0 0 -1165z m0 -1675 l0 -190 -1235 0 -1235 0 0 190 0 190 1235 0 1235 0 0 -190z"/>
 <path d="M1134 4247 c-2 -7 -3 -78 -2 -157 l3 -145 410 0 410 0 0 155 0 155 -408 3 c-328 2 -409 0 -413 -11z"/>
 <path d="M4137 3922 c-59 -59 -107 -111 -107 -115 0 -4 35 -49 78 -99 185 -222 297 -454 354 -740 32 -161 32 -425 0 -586 -57 -286 -169 -518 -354 -740 -43 -50 -78 -96 -78 -100 0 -4 49 -57 110 -117 l110 -109 41 39 c112 109 250 307 334 480 100 207 150 378 171 590 24 250 10 547 -35 722 -63 243 -170 468 -320 671 -59 79 -178 212 -190 212 -3 0 -55 -48 -114 -108z"/>
 <path d="M3636 3421 l-109 -109 45 -54 c93 -109 156 -230 194 -374 26 -97 26 -321 0 -418 -38 -144 -101 -265 -194 -374 l-45 -54 109 -109 c60 -60 114 -109 120 -109 33 0 171 184 237 315 90 182 122 321 122 540 0 223 -32 358 -127 550 -63 125 -200 305 -232 305 -6 0 -60 -49 -120 -109z"/>
 </g>

</svg>