<!DOCTYPE svg PUBLIC "-//W3C//DTD SVG 20010904//EN" "http://www.w3.org/TR/2001/REC-SVG-20010904/DTD/svg10.dtd">
<svg version="1.0" xmlns="http://www.w3.org/2000/svg" width="57px" height="56px" viewBox="0 0 570 560" preserveAspectRatio="xMidYMid meet">
<g id="layer1" fill="#000000" stroke="none">
 <path d="M295 536 c-65 -30 -135 -89 -207 -174 -67 -79 -88 -131 -88 -222 0 -90 27 -134 86 -138 37 -3 44 1 97 57 31 33 57 66 57 75 0 8 -13 31 -30 49 l-30 35 37 49 c20 27 59 66 86 87 l50 37 26 -25 c49 -46 65 -43 131 20 53 50 60 62 60 95 0 29 -6 42 -26 58 -39 31 -179 29 -249 -3z"/>
 </g>

</svg>