<!DOCTYPE svg PUBLIC "-//W3C//DTD SVG 20010904//EN" "http://www.w3.org/TR/2001/REC-SVG-20010904/DTD/svg10.dtd">
<svg version="1.0" xmlns="http://www.w3.org/2000/svg" width="320px" height="320px" viewBox="0 0 3200 3200" preserveAspectRatio="xMidYMid meet">
<g id="layer1" fill="#767676" stroke="none">
 <path d="M975 2458 c-3 -7 -4 -395 -3 -863 l3 -850 330 -3 c362 -3 412 2 512 49 195 93 315 312 283 517 -10 59 -57 177 -91 223 -10 14 -1 27 58 82 77 73 123 149 148 242 67 258 -108 536 -376 600 -86 20 -857 22 -864 3z m760 -270 c77 -42 117 -116 117 -219 0 -82 -29 -147 -86 -193 l-38 -31 -184 -3 -184 -3 0 236 0 237 173 -4 c135 -3 178 -7 202 -20z m-105 -739 c19 -12 41 -29 48 -38 87 -107 66 -308 -40 -378 -36 -25 -51 -27 -159 -31 l-119 -4 0 236 0 236 118 0 c102 0 122 -3 152 -21z"/>
 </g>
<g id="layer2" fill="#cdcdcd" stroke="none">
 <path d="M1315 3185 c-202 -26 -459 -134 -655 -273 -120 -86 -286 -252 -372 -372 -145 -203 -246 -452 -273 -669 -19 -149 -19 -393 0 -542 38 -306 201 -624 445 -869 245 -244 563 -407 869 -445 149 -19 393 -19 542 0 306 38 624 201 869 445 244 245 407 563 445 869 19 149 19 393 0 542 -38 306 -201 624 -445 869 -245 244 -563 407 -869 445 -140 18 -417 17 -556 0z m524 -750 c177 -42 309 -173 356 -350 42 -164 -11 -344 -137 -460 -33 -30 -63 -55 -69 -55 -14 0 -11 -36 5 -49 25 -21 75 -145 86 -214 32 -202 -78 -408 -264 -496 -99 -47 -141 -51 -496 -51 l-330 0 0 845 0 845 393 0 c314 0 405 -3 456 -15z"/>
 <path d="M1352 2217 c-9 -11 -12 -77 -10 -253 l3 -239 165 -3 c91 -2 179 0 196 3 44 8 117 75 144 132 45 96 23 228 -49 301 -62 61 -79 66 -266 70 -142 3 -173 1 -183 -11z"/>
 <path d="M1347 1483 c-13 -12 -8 -478 5 -491 14 -14 174 -16 232 -3 54 13 106 59 139 123 24 45 29 68 29 124 0 106 -40 185 -117 230 -38 22 -53 24 -162 24 -66 0 -123 -3 -126 -7z"/>
 </g>

</svg>