<!DOCTYPE svg PUBLIC "-//W3C//DTD SVG 20010904//EN" "http://www.w3.org/TR/2001/REC-SVG-20010904/DTD/svg10.dtd">
<svg version="1.0" xmlns="http://www.w3.org/2000/svg" width="989px" height="1600px" viewBox="0 0 9890 16000" preserveAspectRatio="xMidYMid meet">
<g id="layer1" fill="#ffffff" stroke="none">
 <path d="M1775 15987 c-47 -28 -216 -169 -293 -244 -30 -29 -57 -53 -60 -53 -20 0 -919 -903 -1157 -1162 -101 -110 -231 -267 -252 -305 -19 -33 -16 -119 4 -151 9 -15 37 -50 62 -78 26 -27 78 -86 116 -129 359 -405 2051 -2114 5271 -5322 l544 -543 -524 -522 c-3123 -3113 -4842 -4847 -5261 -5309 -103 -113 -192 -216 -208 -241 -20 -32 -23 -118 -5 -151 11 -19 124 -159 179 -222 275 -314 1033 -1071 1364 -1364 57 -50 203 -168 223 -178 25 -15 132 -18 132 -4 0 5 7 11 15 13 15 3 257 223 402 365 41 40 76 73 79 73 5 0 209 198 1213 1180 732 716 1175 1156 2935 2915 1607 1606 2476 2480 2476 2489 0 2 73 78 162 168 89 89 202 207 252 260 50 54 163 173 251 266 204 215 195 202 195 262 0 56 -1 58 -105 170 -458 495 -1087 1132 -3226 3270 -2145 2145 -2294 2292 -3584 3549 -126 124 -305 298 -397 388 -92 90 -169 163 -172 163 -3 0 -47 42 -99 93 -150 146 -366 342 -382 345 -8 2 -15 8 -15 13 0 13 -111 10 -135 -4z"/>
 </g>

</svg>